<svg width="22" height="22" viewBox="0 0 22 22" fill="none" xmlns="http://www.w3.org/2000/svg">
<path d="M19.5624 1.375H2.43762C2.15583 1.37511 1.88561 1.4871 1.68636 1.68636C1.4871 1.88561 1.37511 2.15583 1.375 2.43762V19.5624C1.37511 19.8442 1.4871 20.1144 1.68636 20.3136C1.88561 20.5129 2.15583 20.6249 2.43762 20.625H11V13.0625H8.69902V10.3125H11V8.12109C11 5.63492 12.7243 4.28141 14.9454 4.28141C16.008 4.28141 17.151 4.36133 17.4165 4.39656V6.99316H15.6471C14.4388 6.99316 14.2085 7.56465 14.2085 8.40684V10.3125H17.0874L16.7114 13.0625H14.2085V20.625H19.5624C19.8442 20.6249 20.1144 20.5129 20.3136 20.3136C20.5129 20.1144 20.6249 19.8442 20.625 19.5624V2.43762C20.6249 2.15583 20.5129 1.88561 20.3136 1.68636C20.1144 1.4871 19.8442 1.37511 19.5624 1.375V1.375Z" fill="white"/>
</svg>
