<svg width="22" height="22" viewBox="0 0 22 22" fill="none" xmlns="http://www.w3.org/2000/svg">
<path d="M15.0103 2.97902C16.073 2.9822 17.0913 3.40577 17.8428 4.15724C18.5942 4.9087 19.0178 5.927 19.021 6.98973V15.0103C19.0178 16.073 18.5942 17.0913 17.8428 17.8428C17.0913 18.5942 16.073 19.0178 15.0103 19.021H6.98973C5.927 19.0178 4.9087 18.5942 4.15724 17.8428C3.40577 17.0913 2.9822 16.073 2.97902 15.0103V6.98973C2.9822 5.927 3.40577 4.9087 4.15724 4.15724C4.9087 3.40577 5.927 2.9822 6.98973 2.97902H15.0103V2.97902ZM15.0103 1.375H6.98973C3.90156 1.375 1.375 3.90156 1.375 6.98973V15.0103C1.375 18.0984 3.90156 20.625 6.98973 20.625H15.0103C18.0984 20.625 20.625 18.0984 20.625 15.0103V6.98973C20.625 3.90156 18.0984 1.375 15.0103 1.375V1.375Z" fill="white"/>
<path d="M16.2134 6.98974C15.9754 6.98974 15.7428 6.91918 15.545 6.78698C15.3471 6.65478 15.1929 6.46688 15.1019 6.24703C15.0108 6.02719 14.987 5.78528 15.0334 5.5519C15.0798 5.31852 15.1944 5.10414 15.3627 4.93588C15.5309 4.76762 15.7453 4.65304 15.9787 4.60661C16.2121 4.56019 16.454 4.58402 16.6738 4.67508C16.8937 4.76614 17.0816 4.92035 17.2138 5.1182C17.346 5.31605 17.4165 5.54866 17.4165 5.78662C17.4169 5.94471 17.386 6.10131 17.3256 6.24744C17.2653 6.39356 17.1767 6.52633 17.0649 6.63811C16.9531 6.7499 16.8203 6.83851 16.6742 6.89885C16.5281 6.95919 16.3715 6.99008 16.2134 6.98974V6.98974Z" fill="white"/>
<path d="M11 7.79152C11.6346 7.79152 12.2549 7.9797 12.7825 8.33225C13.3102 8.6848 13.7214 9.1859 13.9643 9.77217C14.2071 10.3584 14.2706 11.0036 14.1468 11.6259C14.023 12.2483 13.7175 12.82 13.2687 13.2687C12.82 13.7174 12.2483 14.023 11.626 14.1468C11.0036 14.2706 10.3585 14.2071 9.77218 13.9642C9.18591 13.7214 8.68481 13.3102 8.33226 12.7825C7.97971 12.2549 7.79154 11.6346 7.79154 11C7.79245 10.1493 8.13077 9.33378 8.73228 8.73227C9.33379 8.13076 10.1493 7.79243 11 7.79152V7.79152ZM11 6.1875C10.0482 6.1875 9.11774 6.46975 8.32633 6.99855C7.53492 7.52736 6.91809 8.27897 6.55385 9.15834C6.1896 10.0377 6.0943 11.0053 6.27999 11.9389C6.46568 12.8724 6.92402 13.7299 7.59706 14.403C8.2701 15.076 9.12761 15.5343 10.0611 15.72C10.9947 15.9057 11.9623 15.8104 12.8417 15.4462C13.721 15.0819 14.4726 14.4651 15.0015 13.6737C15.5303 12.8823 15.8125 11.9518 15.8125 11C15.8125 9.72365 15.3055 8.49957 14.403 7.59705C13.5004 6.69453 12.2764 6.1875 11 6.1875V6.1875Z" fill="white"/>
</svg>
