<svg width="100" height="17" viewBox="0 0 100 17" fill="none" xmlns="http://www.w3.org/2000/svg">
<g clip-path="url(#clip0)">
<path d="M11.6529 0.366214C8.43416 0.364547 5.07583 1.08955 1.68624 2.02996C1.25583 2.11663 0.835827 2.3983 0.613744 2.74663C0.409577 3.07496 0.335411 3.40455 0.271661 3.74996C-0.0575059 5.59496 -0.0175059 7.40663 0.0508274 9.41413C0.0658274 9.87371 0.134161 10.4183 0.348744 10.7495C0.572911 11.0841 0.957077 11.2966 1.41583 11.3662C2.00191 11.4522 2.58984 11.5251 3.17916 11.585L3.04916 15.2091C3.02916 15.4975 3.16999 15.737 3.34499 15.875C3.50166 15.9941 3.67624 16.047 3.85541 16.0604C4.21374 16.0875 4.63416 15.9341 4.84291 15.5366C5.75749 13.7766 6.33124 12.9995 7.47499 11.8304C10.4575 11.9037 13.0612 11.7379 16.0092 11.52C17.0512 11.4929 17.7667 10.6408 17.9558 9.96038C18.5212 8.19705 18.6092 6.02038 18.6692 3.81996C18.6946 2.94788 18.3921 2.09163 17.8567 1.63913C17.3475 1.22621 16.7308 1.07663 16.1658 0.923297C14.5962 0.567881 13.0262 0.377047 11.6529 0.366214ZM15.9404 1.74538C16.5062 1.89913 17.005 2.04705 17.3196 2.30246C17.8446 2.86038 17.8271 3.23163 17.8196 3.83371C17.7604 5.96788 17.6579 8.03913 17.1762 9.60872C16.9687 10.1941 16.6071 10.6108 15.9237 10.6737C12.9204 10.8958 10.3146 11.0675 7.29583 10.9816C7.23705 10.9798 7.17851 10.9899 7.12382 11.0116C7.06914 11.0332 7.01948 11.0659 6.97791 11.1075C5.70958 12.3883 5.06083 13.2783 4.09416 15.1391C4.07166 15.1816 4.02291 15.2075 3.96291 15.212C3.92249 15.21 3.90624 15.1787 3.90374 15.1504L4.03458 11.2204C4.04249 11.0083 3.86749 10.8058 3.65666 10.7829C2.95171 10.7156 2.24868 10.6294 1.54833 10.5245C1.24583 10.4783 1.13416 10.3954 1.05124 10.272C0.907077 9.9283 0.910411 9.7158 0.899161 9.38538C0.831661 7.3958 0.798327 5.65705 1.10374 3.92705C1.13208 3.67121 1.22791 3.40955 1.32958 3.1908C1.49791 2.92746 1.75583 2.88871 2.01458 2.81705C5.32958 1.90163 8.57291 1.21705 11.6262 1.21496C13.1229 1.26913 14.6946 1.41913 15.9404 1.74538ZM4.49083 5.11621C4.03416 5.6633 4.07958 6.40621 4.43249 6.90371C4.61666 7.16413 4.90416 7.37371 5.25416 7.42121C5.70874 7.45871 5.99708 7.27455 6.30833 7.06288C6.87208 6.57288 6.92916 5.71788 6.50041 5.10038C6.28208 4.7858 5.93291 4.59705 5.57624 4.58371C5.08791 4.58871 4.75624 4.80663 4.49083 5.1158V5.11621ZM9.43083 4.66955C8.97583 4.68413 8.60791 4.99913 8.38333 5.33913C8.12624 5.72788 7.97624 6.21455 8.18416 6.69163C8.58416 7.60955 9.96624 7.5983 10.5175 6.66538C10.7717 6.23538 10.7067 5.74663 10.5175 5.39205C10.3292 5.03788 10.0442 4.74913 9.62958 4.68288C9.56391 4.67208 9.49735 4.66762 9.43083 4.66955ZM13.4412 4.7558C13.2996 4.75246 13.1537 4.7658 13.0171 4.80205C12.4704 4.94788 12.005 5.51205 12.0754 6.23413C12.1112 6.59746 12.2783 6.95163 12.5796 7.1958C12.8808 7.43955 13.3183 7.54871 13.7796 7.45413C14.3096 7.3458 14.6379 6.91871 14.7475 6.50621C14.8571 6.09371 14.8296 5.6733 14.575 5.33246C14.4425 5.15632 14.2716 5.01279 14.0751 4.91285C13.8787 4.8129 13.662 4.75918 13.4417 4.7558H13.4412ZM5.53916 5.43205C5.64124 5.43288 5.72166 5.46538 5.80458 5.58455C5.98999 5.85205 5.93833 6.25746 5.75124 6.41996C5.56499 6.58246 5.44874 6.59663 5.36708 6.5858C5.28541 6.57455 5.20249 6.5183 5.12833 6.4133C4.98666 6.2133 4.94499 5.88996 5.13124 5.65913C5.23041 5.52746 5.41249 5.44538 5.53958 5.43205H5.53916ZM9.49041 5.52496C9.50624 5.52746 9.68374 5.63038 9.76874 5.78996C9.85374 5.94955 9.86958 6.09788 9.78874 6.23413C9.54833 6.6408 9.03708 6.5308 8.95958 6.35371C8.93041 6.28621 8.95249 6.01496 9.09291 5.80371C9.23249 5.59163 9.40833 5.51205 9.49041 5.52455V5.52496ZM13.8921 5.83663C13.9179 5.87121 13.9808 6.1033 13.9321 6.28746C13.8829 6.47163 13.8029 6.58538 13.6071 6.62538C13.3562 6.67705 13.2154 6.62538 13.11 6.53913C13.0042 6.45371 12.9329 6.30913 12.9175 6.15455C12.88 5.77121 13.0175 5.68246 13.2358 5.62413C13.49 5.56163 13.7775 5.6708 13.8921 5.83663Z" fill="white"/>
<path d="M24.0042 2.08169C24.0108 1.97336 24.0504 1.87586 24.1237 1.78961C24.1594 1.74733 24.2043 1.71372 24.2549 1.69134C24.3055 1.66896 24.3605 1.6584 24.4158 1.66044H27.26C27.3558 1.66044 27.4546 1.70044 27.5567 1.78003C27.6045 1.81437 27.6434 1.85969 27.6701 1.91218C27.6967 1.96468 27.7104 2.02281 27.71 2.08169V6.62044H32.4687V2.08169C32.4687 1.96669 32.5087 1.86794 32.5883 1.78503C32.6683 1.70169 32.7717 1.66003 32.8996 1.66003H35.7054C35.8329 1.66003 35.9446 1.69211 36.0404 1.75586C36.1362 1.82003 36.1842 1.92211 36.1842 2.06253V15.4584C36.1842 15.5988 36.1425 15.7042 36.0592 15.7742C35.9767 15.8446 35.8679 15.8796 35.7342 15.8796H32.8996C32.7721 15.8796 32.6683 15.8446 32.5883 15.7742C32.5087 15.7042 32.4687 15.5992 32.4687 15.4584V10.0196H27.71V15.4584C27.71 15.5925 27.6667 15.6959 27.5808 15.7696C27.4946 15.8429 27.3779 15.8796 27.2308 15.8796H24.4158C24.1479 15.8796 24.0108 15.755 24.0042 15.5063V2.08169ZM50.2021 15.7171C50.1192 15.7871 50.0312 15.8317 49.9387 15.8509C49.8523 15.8695 49.7642 15.8793 49.6758 15.88H48.23C48.115 15.88 48.0158 15.8592 47.9329 15.8175C47.8496 15.7759 47.7796 15.72 47.7221 15.65C47.6632 15.5773 47.615 15.4967 47.5787 15.4104C47.5402 15.3204 47.5081 15.2276 47.4829 15.1329L47.1862 13.9071C47.0904 14.105 46.9517 14.33 46.7696 14.5821C46.5726 14.8496 46.3389 15.0881 46.0754 15.2904C45.7946 15.5113 45.4592 15.6963 45.07 15.8463C44.6804 15.9963 44.2337 16.0713 43.7291 16.0713C43.0016 16.0713 42.3408 15.9309 41.7471 15.65C41.1658 15.3784 40.6486 14.9868 40.2296 14.5009C39.8117 14.0159 39.4875 13.4492 39.2579 12.8009C39.0279 12.1534 38.9129 11.4621 38.9129 10.7284V4.45628C38.9129 4.21378 38.9658 4.03044 39.0712 3.90586C39.1762 3.78128 39.3437 3.71919 39.5737 3.71919H41.7854C42.0604 3.71919 42.2483 3.76503 42.3504 3.85794C42.4525 3.95044 42.5037 4.13086 42.5037 4.39878V10.6321C42.5037 10.9071 42.5662 11.1671 42.6904 11.4129C42.815 11.6588 42.9792 11.8754 43.1837 12.0638C43.3879 12.2521 43.6192 12.4009 43.8779 12.5092C44.1362 12.6175 44.3996 12.6717 44.6679 12.6717C44.8975 12.6717 45.1354 12.6175 45.3812 12.5092C45.6287 12.3995 45.8579 12.2525 46.0608 12.0734C46.2683 11.8917 46.4392 11.6775 46.5733 11.4317C46.7075 11.1859 46.7742 10.9259 46.7742 10.6517V4.42753C46.7742 4.31919 46.795 4.21086 46.8367 4.10211C46.8783 3.99378 46.9404 3.91044 47.0233 3.85294C47.1062 3.80211 47.1846 3.76711 47.2579 3.74794C47.3312 3.72878 47.4162 3.71878 47.5117 3.71878H49.6758C49.95 3.71878 50.1479 3.78628 50.2692 3.92003C50.3904 4.05419 50.4512 4.23294 50.4512 4.45628V15.1713C50.4512 15.2921 50.4242 15.4042 50.37 15.5063C50.3158 15.6084 50.2408 15.6884 50.145 15.7454L50.2021 15.7171ZM61.3192 14.3954C61.1467 14.5679 60.9566 14.7529 60.7496 14.9509C60.5421 15.1488 60.3137 15.3342 60.065 15.5063C59.8146 15.6795 59.5447 15.8225 59.2608 15.9325C58.9643 16.0459 58.6491 16.1027 58.3317 16.1C57.4637 16.1 56.6642 15.9375 55.9329 15.6117C55.2201 15.2989 54.5783 14.8444 54.0467 14.2759C53.52 13.7109 53.1083 13.0454 52.8117 12.2792C52.5146 11.5134 52.3662 10.69 52.3662 9.80878C52.3662 8.92128 52.5146 8.09628 52.8117 7.33378C53.1083 6.57128 53.52 5.90711 54.0467 5.34211C54.5777 4.77409 55.2197 4.32113 55.9329 4.01128C56.6642 3.68878 57.4637 3.52753 58.3317 3.52753C58.6829 3.52753 59.0037 3.57878 59.2942 3.68086C59.5744 3.77795 59.8413 3.90981 60.0887 4.07336C60.3283 4.23294 60.5483 4.41336 60.7496 4.61419C60.9504 4.81544 61.1404 5.01169 61.3192 5.20336V0.827109C61.3192 0.622943 61.3817 0.450859 61.5058 0.310443C61.6304 0.169609 61.8171 0.0996094 62.0662 0.0996094H64.2204C64.3037 0.0996094 64.3912 0.117109 64.4837 0.152109C64.5762 0.187526 64.6608 0.236693 64.7379 0.300859C64.8142 0.364609 64.8762 0.441276 64.9241 0.530443C64.9721 0.620026 64.9962 0.718776 64.9962 0.827109V15.1425C64.9962 15.6342 64.7379 15.88 64.2204 15.88H62.3437C62.2162 15.88 62.1171 15.8634 62.0471 15.8317C61.9775 15.8005 61.9166 15.7529 61.8696 15.6929C61.8162 15.6227 61.7728 15.5454 61.7404 15.4634C61.6953 15.3553 61.6475 15.2483 61.5971 15.1425L61.3192 14.3954ZM55.8133 9.80878C55.8101 10.2114 55.8765 10.6116 56.0096 10.9917C56.1404 11.3584 56.3271 11.6763 56.57 11.9442C56.8152 12.2142 57.1133 12.4309 57.4458 12.5809C57.7875 12.7375 58.1658 12.8154 58.5808 12.8154C58.9892 12.8154 59.3737 12.7421 59.7346 12.5954C60.085 12.4551 60.4051 12.2485 60.6775 11.9871C60.9481 11.7253 61.1674 11.4153 61.3242 11.0729C61.4866 10.7217 61.5779 10.345 61.5971 9.94294V9.80878C61.5985 9.40808 61.5203 9.01109 61.3671 8.64086C61.2186 8.27791 61.0026 7.94647 60.7304 7.66419C60.4575 7.38225 60.1323 7.15622 59.7729 6.99878C59.3972 6.83421 58.991 6.75099 58.5808 6.75461C58.1658 6.75461 57.7875 6.83586 57.4458 6.99878C57.1041 7.16128 56.8125 7.38336 56.57 7.66419C56.3235 7.95167 56.1334 8.283 56.0096 8.64086C55.878 9.01611 55.8118 9.41114 55.8137 9.80878H55.8133ZM76.1133 14.3954C75.9408 14.5679 75.7508 14.7529 75.5433 14.9509C75.3358 15.1488 75.1075 15.3342 74.8587 15.5063C74.6084 15.6795 74.3384 15.8225 74.0546 15.9325C73.758 16.0459 73.4429 16.1027 73.1254 16.1C72.2575 16.1 71.4579 15.9375 70.7271 15.6117C70.0141 15.299 69.3722 14.8445 68.8404 14.2759C68.3142 13.7109 67.9021 13.0454 67.6054 12.2792C67.3087 11.5134 67.16 10.69 67.16 9.80878C67.16 8.92128 67.3087 8.09628 67.6054 7.33378C67.9021 6.57128 68.3137 5.90711 68.8404 5.34211C69.3716 4.77404 70.0137 4.32108 70.7271 4.01128C71.4579 3.68878 72.2575 3.52753 73.1254 3.52753C73.4767 3.52753 73.7975 3.57878 74.0879 3.68086C74.3681 3.77795 74.6351 3.90981 74.8825 4.07336C75.1221 4.23294 75.3421 4.41336 75.5433 4.61419C75.7446 4.81544 75.9342 5.01169 76.1129 5.20336V0.827109C76.1129 0.622943 76.1754 0.450859 76.2996 0.310443C76.4246 0.169609 76.6108 0.0996094 76.86 0.0996094H79.0142C79.0975 0.0996094 79.185 0.117109 79.2775 0.152109C79.3704 0.187526 79.455 0.236693 79.5317 0.300859C79.6079 0.364609 79.6704 0.441276 79.7183 0.530443C79.7658 0.620026 79.79 0.718776 79.79 0.827109V15.1425C79.79 15.6342 79.5317 15.88 79.0142 15.88H77.1375C77.01 15.88 76.9108 15.8634 76.8408 15.8317C76.7714 15.8004 76.7107 15.7528 76.6637 15.6929C76.6104 15.6227 76.5669 15.5454 76.5346 15.4634C76.4893 15.3553 76.4414 15.2483 76.3908 15.1425L76.1129 14.3954H76.1133ZM70.6071 9.80878C70.6039 10.2114 70.6703 10.6116 70.8033 10.9917C70.9346 11.3584 71.1212 11.6763 71.3637 11.9442C71.6091 12.2143 71.9073 12.431 72.24 12.5809C72.5817 12.7375 72.9596 12.8154 73.3746 12.8154C73.7829 12.8154 74.1675 12.7421 74.5283 12.5954C74.8789 12.4551 75.1992 12.2486 75.4717 11.9871C75.742 11.7252 75.961 11.4152 76.1175 11.0729C76.2804 10.7217 76.3717 10.345 76.3908 9.94294V9.80878C76.3923 9.40808 76.3141 9.01109 76.1608 8.64086C76.0124 8.27791 75.7963 7.94647 75.5242 7.66419C75.2513 7.38225 74.926 7.15622 74.5667 6.99878C74.191 6.83421 73.7847 6.75099 73.3746 6.75461C72.9596 6.75461 72.5812 6.83586 72.24 6.99878C71.8983 7.16128 71.6062 7.38336 71.3637 7.66419C71.1173 7.95167 70.9271 8.283 70.8033 8.64086C70.6718 9.01611 70.6055 9.41114 70.6075 9.80878H70.6071ZM82.3375 0.836693C82.3375 0.632526 82.3883 0.460443 82.4904 0.320026C82.5929 0.179193 82.7683 0.109193 83.0171 0.109193H85.3629C85.4271 0.109193 85.4942 0.126693 85.5642 0.161693C85.6378 0.199437 85.7042 0.249781 85.7604 0.310443C85.8212 0.374193 85.8721 0.450859 85.9137 0.540026C85.9554 0.629609 85.9762 0.728359 85.9762 0.836693V15.1425C85.9762 15.385 85.9075 15.5684 85.77 15.6929C85.6329 15.8175 85.4558 15.8796 85.2387 15.8796H83.0171C82.7683 15.8796 82.5929 15.8171 82.4904 15.6929C82.3883 15.5684 82.3375 15.3846 82.3375 15.1425V0.836693ZM98.4625 14.4242C97.9073 14.9371 97.2654 15.3472 96.5667 15.6354C95.8591 15.927 95.1007 16.0752 94.3354 16.0713C93.4604 16.0713 92.6342 15.9117 91.8554 15.5921C91.0943 15.2845 90.3988 14.8345 89.8062 14.2663C89.216 13.697 88.7413 13.019 88.4083 12.2696C88.0633 11.5038 87.8912 10.6709 87.8912 9.77044C87.8912 9.20878 87.9596 8.66461 88.0971 8.13794C88.2299 7.62264 88.4261 7.12579 88.6812 6.65878C88.9334 6.19911 89.2422 5.77287 89.6004 5.39003C89.9576 5.00654 90.3651 4.6731 90.8117 4.39878C91.266 4.12092 91.7555 3.90512 92.2671 3.75711C92.8054 3.60192 93.3631 3.5246 93.9233 3.52753C94.4533 3.52753 94.9671 3.59794 95.465 3.73836C95.9629 3.87878 96.4308 4.07669 96.8679 4.33169C97.3054 4.58711 97.7054 4.89378 98.0696 5.25128C98.4287 5.60282 98.7438 5.99668 99.0079 6.42419C99.2697 6.8486 99.4743 7.30576 99.6162 7.78378C99.7596 8.26586 99.8316 8.76211 99.8316 9.27253C99.8316 9.60461 99.8267 9.87586 99.8171 10.0867C99.8075 10.2971 99.7579 10.465 99.6687 10.5892C99.5792 10.7142 99.4312 10.8 99.2233 10.8475C99.0158 10.8959 98.7108 10.9196 98.3092 10.9196H91.415C91.4787 11.3279 91.6079 11.6696 91.8025 11.9446C91.9827 12.2049 92.212 12.4275 92.4775 12.6C92.7329 12.7629 93.0042 12.8792 93.2916 12.95C93.5577 13.0174 93.8309 13.0527 94.1054 13.055C94.3354 13.055 94.5712 13.0309 94.8137 12.9834C95.0527 12.9365 95.2881 12.8724 95.5179 12.7917C95.7328 12.717 95.9409 12.624 96.14 12.5138C96.3283 12.4088 96.48 12.2984 96.595 12.1838C96.6971 12.1004 96.785 12.0384 96.8583 11.9967C96.9317 11.955 97.01 11.9346 97.0929 11.9346C97.1762 11.9346 97.2604 11.9638 97.3471 12.0209C97.452 12.0942 97.5497 12.1775 97.6387 12.2696L98.6537 13.4188C98.7237 13.5021 98.7687 13.5771 98.7879 13.6438C98.8071 13.7109 98.8167 13.7796 98.8167 13.8496C98.8167 13.9775 98.7812 14.0875 98.7112 14.18C98.6405 14.2731 98.5565 14.3553 98.4621 14.4242H98.4625ZM93.8567 6.44794C93.6075 6.44794 93.3667 6.49753 93.1337 6.59628C92.8974 6.6972 92.6764 6.83102 92.4775 6.99378C92.2733 7.15961 92.09 7.34794 91.9271 7.55878C91.7716 7.75755 91.6383 7.97272 91.5296 8.20044H96.4225C96.2942 7.96038 96.1487 7.72991 95.9871 7.51086C95.8334 7.30303 95.6531 7.1163 95.4508 6.95544C95.2439 6.7927 95.0107 6.66645 94.7612 6.58211C94.5029 6.49253 94.2012 6.44794 93.8567 6.44794Z" fill="white"/>
</g>
<defs>
<clipPath id="clip0">
<rect width="100" height="16.25" fill="white"/>
</clipPath>
</defs>
</svg>
